#!OML:ASF G:\JayActor3\Patient Classification 1\Patient 1\Session 6\male.ASF
:FULLY-SPECIFIED
:DEGREES
1877
root -33.8556 16.2729 -16.2134 -3.10795 -131.567 -356.535
lowerback -0.953614 -0.00783176 5.40449
upperback 2.10251 -0.206985 0.985036
thorax 2.69065 -0.0214822 -2.02079
lowerneck 5.39345 9.95782 10.6469
upperneck -1.06933 13.8065 -9.01639
head 0.185519 7.00789 -4.39907
rclavicle 1.22377e-013 0
rhumerus -41.6553 11.1276 -93.1004
rradius 66.9774
rwrist 12.6285
rhand -37.8483 0.123127
rfingers 7.12502
rthumb -10.893 -29.5743
lclavicle 1.22377e-013 0
lhumerus -34.1606 -17.31 93.5687
lradius 62.6609
lwrist 10.7611
lhand -12.8683 7.71505
lfingers 7.12502
lthumb 13.2202 37.2758
rfemur -7.53164 -0.808103 29.5058
rtibia 36.9852
rfoot -33.189 -18.0452
rtoes 7.92852
lfemur -10.1936 4.99341 -17.7743
ltibia 33.2499
lfoot -20.7224 -5.20796
ltoes -5.48498
1878
root -33.8662 16.274 -16.2127 -3.11611 -131.574 -356.512
lowerback -0.974306 -0.00624643 5.41129
upperback 2.09638 -0.20598 0.984323
thorax 2.69605 -0.020717 -2.02534
lowerneck 5.31478 9.9078 10.6122
upperneck -1.00757 13.7327 -8.97735
head 0.203909 6.96919 -4.37832
rclavicle 3.3048e-015 -1.39149e-014
rhumerus -41.658 11.1009 -93.1294
rradius 66.909
rwrist 12.6212
rhand -37.8294 0.0816783
rfingers 7.12502
rthumb -10.8747 -29.6167
lclavicle 3.3048e-015 -1.39149e-014
lhumerus -34.2158 -17.3104 93.599
lradius 62.5959
lwrist 10.754
lhand -12.8625 7.70315
lfingers 7.12502
lthumb 13.2257 37.2636
rfemur -7.47812 -0.807853 29.4971
rtibia 36.9175
rfoot -33.2 -18.0617
rtoes 7.94497
lfemur -10.1385 5.06361 -17.781
ltibia 33.1867
lfoot -20.7439 -5.24584
ltoes -5.54294
1879
root -33.8771 16.275 -16.212 -3.1155 -131.587 -356.498
lowerback -1.00144 -0.00262378 5.41444
upperback 2.09136 -0.202542 0.981624
thorax 2.70641 -0.0186211 -2.02983
lowerneck 5.23844 9.85817 10.5723
upperneck -0.948653 13.6592 -8.93324
head 0.22046 6.93065 -4.35559
rclavicle -6.83322e-015 -1.47101e-014
rhumerus -41.6602 11.0735 -93.1563
rradius 66.8436
rwrist 12.6134
rhand -37.8201 0.0377502
rfingers 7.12502
rthumb -10.8658 -29.6611
lclavicle -6.83322e-015 -1.47101e-014
lhumerus -34.2652 -17.3149 93.6286
lradius 62.5281
lwrist 10.7451
lhand -12.8438 7.69839
lfingers 7.12502
lthumb 13.2437 37.2577
rfemur -7.42727 -0.799136 29.4815
rtibia 36.8544
rfoot -33.1895 -18.1129
rtoes 7.85252
lfemur -10.0824 5.13567 -17.7945
ltibia 33.1217
lfoot -20.77 -5.27786
ltoes -5.6165
1880
root -33.8879 16.2761 -16.2113 -3.10379 -131.602 -356.493
lowerback -1.03207 0.000852559 5.40889
upperback 2.08554 -0.19919 0.978276
thorax 2.71788 -0.0166907 -2.03013
lowerneck 5.16747 9.81525 10.5198
upperneck -0.892715 13.5944 -8.87504
head 0.234352 6.89641 -4.32715
rclavicle -1.37907e-014 8.34896e-015
rhumerus -41.6621 11.0487 -93.182
rradius 66.7772
rwrist 12.6126
rhand -37.8318 -0.00771583
rfingers 7.12502
rthumb -10.877 -29.706
lclavicle -1.37907e-014 8.34896e-015
lhumerus -34.3106 -17.3133 93.6582
lradius 62.4586
lwrist 10.7307
lhand -12.8179 7.69958
lfingers 7.12502
lthumb 13.2687 37.2572
rfemur -7.3832 -0.782379 29.4601
rtibia 36.7972
rfoot -33.1769 -18.1719
rtoes 7.73686
lfemur -10.0286 5.21709 -17.8144
ltibia 33.0537
lfoot -20.7909 -5.31462
ltoes -5.72546
1881
root -33.8987 16.2772 -16.2107 -3.07777 -131.619 -356.503
lowerback -1.06653 0.00232205 5.3905
upperback 2.07835 -0.198235 0.97374
thorax 2.72988 -0.0161629 -2.02458
lowerneck 5.08702 9.7689 10.4873
upperneck -0.822682 13.5259 -8.83843
head 0.256487 6.86039 -4.30695
rclavicle 1.05555e-013 -1.27222e-014
rhumerus -41.6635 11.0317 -93.2087
rradius 66.7057
rwrist 12.6216
rhand -37.8564 -0.0276309
rfingers 7.12502
rthumb -10.9008 -29.7247
lclavicle 1.05555e-013 -1.27222e-014
lhumerus -34.354 -17.3001 93.6858
lradius 62.3884
lwrist 10.7107
lhand -12.7886 7.70206
lfingers 7.12502
lthumb 13.297 37.2579
rfemur -7.34481 -0.762464 29.4284
rtibia 36.7456
rfoot -33.1667 -18.2353
rtoes 7.61192
lfemur -9.97738 5.31563 -17.8431
ltibia 32.9843
lfoot -20.8114 -5.36557
ltoes -5.88964
1882
root -33.909 16.2784 -16.21 -3.04358 -131.635 -356.514
lowerback -1.10618 0.00203368 5.3658
upperback 2.06954 -0.199725 0.970597
thorax 2.74294 -0.0169839 -2.01415
lowerneck 4.99514 9.7194 10.4778
upperneck -0.739979 13.4539 -8.82505
head 0.28705 6.82273 -4.29584
rclavicle 1.47349e-014 7.95139e-016
rhumerus -41.6633 11.0184 -93.2349
rradius 66.6334
rwrist 12.6421
rhand -37.8852 -0.0208438
rfingers 7.12502
rthumb -10.9285 -29.7164
lclavicle 1.47349e-014 7.95139e-016
lhumerus -34.394 -17.2765 93.7113
lradius 62.3184
lwrist 10.6874
lhand -12.7689 7.69457
lfingers 7.12502
lthumb 13.3159 37.2491
rfemur -7.31782 -0.730975 29.4004
rtibia 36.6972
rfoot -33.2463 -18.18
rtoes 7.86911
lfemur -9.93768 5.42892 -17.8698
ltibia 32.9161
lfoot -20.8108 -5.55488
ltoes -5.14391
1883
root -33.9188 16.2799 -16.2093 -3.00404 -131.651 -356.521
lowerback -1.14836 -0.000889702 5.33593
upperback 2.05749 -0.204641 0.969957
thorax 2.75381 -0.0197447 -1.99838
lowerneck 4.90089 9.66957 10.4736
upperneck -0.652516 13.3816 -8.81669
head 0.320101 6.78498 -4.28674
rclavicle -5.6927e-014 5.1684e-015
rhumerus -41.6638 11.0114 -93.2616
rradius 66.5613
rwrist 12.6693
rhand -37.936 0.013182
rfingers 7.12502
rthumb -10.9776 -29.6798
lclavicle -5.6927e-014 5.1684e-015
lhumerus -34.4333 -17.2404 93.7344
lradius 62.2495
lwrist 10.6606
lhand -12.7519 7.68615
lfingers 7.12502
lthumb 13.3323 37.2396
rfemur -7.30255 -0.687647 29.3801
rtibia 36.649
rfoot -33.395 -18.0492
rtoes 8.39829
lfemur -9.91221 5.55996 -17.8902
ltibia 32.8519
lfoot -20.7732 -5.91411
ltoes -3.34116
1884
root -33.9281 16.2814 -16.2088 -2.9628 -131.665 -356.524
lowerback -1.19368 -0.00466657 5.3056
upperback 2.04311 -0.210793 0.970778
thorax 2.76396 -0.0231954 -1.9809
lowerneck 4.80717 9.61971 10.4705
upperneck -0.56463 13.3095 -8.80783
head 0.353254 6.74727 -4.27776
rclavicle 2.80783e-015 -3.97569e-015
rhumerus -41.6629 11.0042 -93.288
rradius 66.4878
rwrist 12.6994
rhand -37.9829 0.0556957
rfingers 7.12502
rthumb -11.0228 -29.6349
lclavicle 2.80783e-015 -3.97569e-015
lhumerus -34.4732 -17.2001 93.7555
lradius 62.1833
lwrist 10.6339
lhand -12.7455 7.67299
lfingers 7.12502
lthumb 13.3385 37.2261
rfemur -7.29377 -0.635926 29.3674
rtibia 36.5985
rfoot -33.6142 -17.8366
rtoes 9.17688
lfemur -9.89886 5.70391 -17.9027
ltibia 32.7932
lfoot -20.698 -6.41306
ltoes -0.626724
1885
root -33.9371 16.2833 -16.2082 -2.92563 -131.679 -356.511
lowerback -1.24208 -0.00926794 5.28262
upperback 2.02571 -0.218386 0.973982
thorax 2.77265 -0.0273359 -1.96514
lowerneck 4.71321 9.56879 10.461
upperneck -0.476499 13.2356 -8.78954
head 0.38529 6.70857 -4.26521
rclavicle -3.07371e-014 -5.56597e-015
rhumerus -41.6609 10.9967 -93.3152
rradius 66.4127
rwrist 12.727
rhand -38.0223 0.104388
rfingers 7.12502
rthumb -11.0608 -29.5842
lclavicle -3.07371e-014 -5.56597e-015
lhumerus -34.5133 -17.1582 93.7736
lradius 62.1187
lwrist 10.61
lhand -12.7445 7.65756
lfingers 7.12502
lthumb 13.3395 37.2106
rfemur -7.29312 -0.577328 29.3683
rtibia 36.5449
rfoot -33.8579 -17.5887
rtoes 10.0607
lfemur -9.89918 5.85716 -17.901
ltibia 32.7396
lfoot -20.5922 -6.98112
ltoes 2.53692
